<?xml version="1.0" encoding="UTF-8" standalone="no"?>
<!DOCTYPE svg PUBLIC "-//W3C//DTD SVG 1.1//EN" "http://www.w3.org/Graphics/SVG/1.1/DTD/svg11.dtd">
<svg width="100%" height="100%" viewBox="0 0 2351 615" version="1.1" xmlns="http://www.w3.org/2000/svg" xmlns:xlink="http://www.w3.org/1999/xlink" xml:space="preserve" xmlns:serif="http://www.serif.com/" style="fill-rule:evenodd;clip-rule:evenodd;stroke-linecap:round;stroke-linejoin:round;">
    <g transform="matrix(5.55556,0,0,5.55556,0,0)">
        <g transform="matrix(1,0,0,1,-36.982,-45.235)">
            <g transform="matrix(1,0,0,1,116.921,135.956)">
                <path d="M7.193,-17.523L7.193,-55.6L2.162,-55.6L2.162,-67.21L36.99,-67.21C38.546,-67.348 40.094,-66.861 41.29,-65.856C42.295,-64.66 42.782,-63.112 42.644,-61.556L42.644,-50.876L30.256,-50.876L30.256,-53.9C30.266,-53.971 30.272,-54.043 30.272,-54.116C30.272,-54.938 29.594,-55.616 28.772,-55.616C28.699,-55.616 28.627,-55.61 28.556,-55.6L21.046,-55.6L21.046,-45.539L36.835,-45.539L36.835,-33.93L21.046,-33.93L21.046,-25.184C21.036,-25.113 21.03,-25.041 21.03,-24.968C21.03,-24.146 21.708,-23.468 22.53,-23.468C22.603,-23.468 22.675,-23.474 22.746,-23.484L30.408,-23.484C30.479,-23.474 30.551,-23.468 30.624,-23.468C31.446,-23.468 32.124,-24.146 32.124,-24.968C32.124,-25.041 32.118,-25.113 32.108,-25.184L32.108,-28.2L44.5,-28.2L44.5,-17.52C44.638,-15.964 44.151,-14.416 43.146,-13.22C41.95,-12.215 40.402,-11.728 38.846,-11.866L12.846,-11.866C11.29,-11.728 9.742,-12.215 8.546,-13.22C7.541,-14.417 7.054,-15.966 7.193,-17.523ZM48.908,-31.841C48.831,-37.324 50.967,-42.614 54.829,-46.507C58.776,-50.609 64.31,-52.66 71.429,-52.66C73.001,-52.658 74.569,-52.502 76.111,-52.196C77.732,-51.872 79.314,-51.379 80.832,-50.725C82.346,-50.1 83.668,-49.085 84.663,-47.784C85.642,-46.497 86.161,-44.917 86.135,-43.3L86.135,-37.8L74.526,-37.8L74.526,-39.89C74.526,-41.023 73.493,-41.59 71.426,-41.59C68.936,-41.693 66.524,-40.685 64.847,-38.842C63.181,-36.961 62.296,-34.512 62.375,-32C62.375,-28.853 63.355,-26.479 65.316,-24.88C67.329,-23.262 69.854,-22.411 72.436,-22.48C74.275,-22.512 76.084,-22.948 77.736,-23.757C79.259,-24.415 80.679,-25.289 81.954,-26.35L83.424,-27.666L88.764,-18.688C88.609,-18.481 88.364,-18.198 88.029,-17.837C87.336,-17.17 86.599,-16.549 85.823,-15.98C84.691,-15.105 83.487,-14.328 82.223,-13.658C80.655,-12.87 79.009,-12.248 77.312,-11.8C75.297,-11.232 73.213,-10.946 71.12,-10.949C64.309,-10.949 58.905,-12.987 54.906,-17.063C50.98,-20.965 48.812,-26.306 48.908,-31.841ZM91.398,-31.686C91.209,-37.434 93.577,-42.979 97.86,-46.817C102.24,-50.739 107.965,-52.832 113.842,-52.66C119.756,-52.837 125.518,-50.746 129.942,-46.817C134.246,-42.991 136.63,-37.441 136.442,-31.686C136.63,-25.983 134.258,-20.486 129.98,-16.71C125.553,-12.822 119.81,-10.76 113.921,-10.944C108.032,-10.76 102.288,-12.822 97.861,-16.71C93.583,-20.486 91.212,-25.984 91.4,-31.686L91.398,-31.686ZM104.865,-31.686C104.749,-29.102 105.702,-26.58 107.5,-24.72C109.186,-22.995 111.512,-22.042 113.924,-22.089C116.336,-22.042 118.662,-22.995 120.348,-24.72C122.144,-26.581 123.096,-29.102 122.979,-31.686C123.096,-34.316 122.147,-36.884 120.348,-38.806C118.685,-40.573 116.35,-41.558 113.924,-41.515C111.498,-41.558 109.163,-40.573 107.5,-38.806C105.7,-36.885 104.749,-34.316 104.865,-31.686Z" style="fill:rgb(245,194,52);fill-rule:nonzero;"/>
            </g>
            <g transform="matrix(1,0,0,1,252.774,63.779)">
                <path d="M7.193,61.127L7.193,17.4L2.162,17.4L2.162,5.79L35.442,5.79C36.998,5.652 38.546,6.139 39.742,7.144C40.747,8.34 41.234,9.888 41.096,11.444L41.096,22.12L28.708,22.12L28.708,19.1C28.718,19.029 28.724,18.957 28.724,18.884C28.724,18.062 28.046,17.384 27.224,17.384C27.151,17.384 27.079,17.39 27.008,17.4L21.046,17.4L21.046,29.008L36.835,29.008L36.835,40.618L21.046,40.618L21.046,61.128L7.193,61.127ZM49.141,61.127L49.141,34.194C49.151,34.123 49.157,34.051 49.157,33.978C49.157,33.156 48.479,32.478 47.657,32.478C47.584,32.478 47.512,32.484 47.441,32.494L44.5,32.494L44.5,21.269L56.338,21.269C60.105,21.269 61.988,22.972 61.988,26.377L61.988,28.467L61.833,30.479L61.988,30.479C62.86,27.701 64.545,25.247 66.825,23.436C69.022,21.582 71.807,20.567 74.681,20.572L76.229,20.727L76.229,33.884C75.336,33.714 74.429,33.636 73.52,33.652C68.154,33.652 64.723,35.974 63.227,40.618C62.726,42.379 62.49,44.205 62.527,46.036L62.527,61.127L49.141,61.127ZM83.741,47.119L83.741,34.194C83.751,34.123 83.757,34.051 83.757,33.978C83.757,33.156 83.079,32.478 82.257,32.478C82.184,32.478 82.112,32.484 82.041,32.494L79.092,32.494L79.092,21.269L91.476,21.269C93.032,21.131 94.58,21.618 95.776,22.623C96.781,23.819 97.268,25.367 97.13,26.923L97.13,44.642C97.13,48.151 98.549,49.905 101.387,49.905C103.878,50.026 106.258,48.836 107.656,46.771C109.17,44.439 109.928,41.694 109.823,38.915L109.823,21.269L123.212,21.269L123.212,48.2C123.202,48.271 123.196,48.343 123.196,48.416C123.196,49.238 123.874,49.916 124.696,49.916C124.769,49.916 124.841,49.91 124.912,49.9L127.853,49.9L127.853,61.127L116.01,61.127C114.52,61.222 113.043,60.798 111.831,59.927C110.85,59.125 110.304,57.904 110.361,56.638L110.361,56.1L110.438,55.171L110.283,55.171C109.17,57.317 107.428,59.072 105.291,60.202C103.027,61.444 100.482,62.082 97.9,62.056C93.567,62.056 90.123,60.882 87.568,58.535C85.013,56.188 83.736,52.382 83.736,47.119L83.741,47.119ZM136.911,16.625L136.911,5.79L148.133,5.79L148.133,16.625L136.911,16.625ZM135.9,55.477L135.9,34.194C135.91,34.123 135.916,34.051 135.916,33.978C135.916,33.156 135.238,32.478 134.416,32.478C134.343,32.478 134.271,32.484 134.2,32.494L131.259,32.494L131.259,21.269L143.64,21.269C145.196,21.131 146.744,21.618 147.94,22.623C148.945,23.819 149.432,25.367 149.294,26.923L149.294,48.2C149.284,48.271 149.278,48.343 149.278,48.416C149.278,49.238 149.956,49.916 150.778,49.916C150.851,49.916 150.923,49.91 150.994,49.9L153.935,49.9L153.935,61.127L141.55,61.127C139.994,61.265 138.446,60.778 137.25,59.773C136.248,58.578 135.762,57.031 135.9,55.477ZM162.292,46.422L162.292,31.717L157.184,31.717L157.184,21.269L162.684,21.269L162.684,10.511L175.684,10.511L175.684,21.269L184.043,21.269L184.043,31.717L175.684,31.717L175.684,44.642C175.684,48.047 178.057,49.75 182.804,49.75L184.584,49.673L184.584,61.282C183.379,61.452 182.163,61.529 180.946,61.514C179.743,61.516 178.542,61.452 177.346,61.321C175.991,61.157 174.647,60.912 173.321,60.586C171.879,60.257 170.497,59.709 169.221,58.961C167.972,58.21 166.816,57.314 165.777,56.291C164.624,55.122 163.75,53.706 163.223,52.15C162.58,50.31 162.265,48.371 162.292,46.422Z" style="fill:rgb(250,79,80);fill-rule:nonzero;"/>
            </g>
            <g transform="matrix(1,0,0,1,28.648,55.571)">
                <path d="M54.418,72.27C38.093,74.57 12.507,69.015 10.835,30.554C26.953,30.554 33.989,30.627 42.407,34.48M27.107,42.98L57.929,66.473C58.275,52.091 53.951,39.765 42.406,34.48M46.306,30.554C47.95,18.821 51.94,13.313 58.453,7.627C87.289,33.221 63.936,59.984 58.453,67.019" style="fill:none;fill-rule:nonzero;stroke:rgb(245,194,52);stroke-width:5px;"/>
            </g>
            <g transform="matrix(1,0,0,1,468.822,154.621)">
                <path d="M-175.356,-7.48L-175.356,-12.88L-176.823,-12.88L-176.823,-14.614L-175.311,-14.614L-175.311,-17.704L-173.199,-17.704L-173.199,-14.614L-170.487,-14.614L-170.487,-12.88L-173.2,-12.88L-173.2,-7.723C-173.208,-7.341 -173.148,-6.961 -173.022,-6.6C-172.929,-6.325 -172.782,-6.072 -172.589,-5.855C-172.418,-5.677 -172.214,-5.534 -171.989,-5.433C-171.791,-5.339 -171.582,-5.272 -171.367,-5.233C-171.179,-5.203 -170.99,-5.189 -170.8,-5.189L-170.289,-5.233L-170.289,-3.321C-170.54,-3.289 -170.792,-3.274 -171.045,-3.277C-171.387,-3.276 -171.729,-3.299 -172.068,-3.344C-172.452,-3.405 -172.826,-3.517 -173.18,-3.677C-173.578,-3.844 -173.943,-4.081 -174.258,-4.377C-174.602,-4.728 -174.867,-5.149 -175.036,-5.611C-175.261,-6.208 -175.37,-6.842 -175.356,-7.48ZM-169.087,-6.435C-169.087,-9.058 -166.82,-10.37 -162.287,-10.37L-161.798,-10.37L-161.798,-10.526C-161.729,-11.254 -161.939,-11.982 -162.387,-12.56C-162.911,-13.014 -163.597,-13.234 -164.287,-13.171C-164.705,-13.17 -165.122,-13.107 -165.521,-12.982C-165.928,-12.856 -166.132,-12.63 -166.132,-12.304L-166.132,-11.659L-168.177,-11.659L-168.177,-12.793C-168.181,-13.198 -168.02,-13.587 -167.732,-13.871C-167.421,-14.184 -167.034,-14.41 -166.609,-14.527C-166.205,-14.65 -165.793,-14.743 -165.375,-14.805C-165.029,-14.855 -164.68,-14.881 -164.33,-14.883C-163.007,-15.025 -161.683,-14.605 -160.684,-13.727C-159.939,-12.816 -159.566,-11.656 -159.639,-10.481L-159.639,-5.7C-159.642,-5.68 -159.643,-5.659 -159.643,-5.639C-159.643,-5.402 -159.448,-5.207 -159.211,-5.207C-159.191,-5.207 -159.17,-5.208 -159.15,-5.211L-158.239,-5.211L-158.239,-3.366L-160.284,-3.366C-161.203,-3.366 -161.662,-3.796 -161.662,-4.655L-161.64,-5.322L-161.684,-5.322C-161.669,-5.322 -161.703,-5.244 -161.784,-5.089C-161.897,-4.89 -162.031,-4.703 -162.184,-4.533C-162.39,-4.298 -162.617,-4.082 -162.862,-3.888C-163.178,-3.647 -163.531,-3.459 -163.907,-3.332C-164.356,-3.173 -164.83,-3.094 -165.307,-3.099C-166.274,-3.075 -167.22,-3.394 -167.975,-3.999C-168.711,-4.588 -169.124,-5.493 -169.087,-6.435ZM-166.931,-6.635C-166.933,-6.15 -166.731,-5.686 -166.375,-5.357C-165.951,-4.974 -165.39,-4.777 -164.819,-4.812C-163.954,-4.8 -163.137,-5.217 -162.64,-5.924C-162.089,-6.628 -161.792,-7.498 -161.795,-8.392L-161.795,-8.814L-162.373,-8.814C-165.411,-8.814 -166.93,-8.088 -166.93,-6.635L-166.931,-6.635ZM-156.26,-3.367L-156.26,-16.727C-156.257,-16.747 -156.256,-16.768 -156.256,-16.788C-156.256,-17.025 -156.451,-17.22 -156.688,-17.22C-156.708,-17.22 -156.729,-17.219 -156.749,-17.216L-157.66,-17.216L-157.66,-19.061L-155.548,-19.061C-155.152,-19.096 -154.758,-18.977 -154.448,-18.728C-154.191,-18.427 -154.066,-18.034 -154.103,-17.639L-154.103,-13.971L-154.147,-13.037L-154.103,-13.037C-154.074,-13.082 -154.033,-13.148 -153.981,-13.237C-153.867,-13.399 -153.737,-13.548 -153.592,-13.682C-153.383,-13.891 -153.152,-14.078 -152.903,-14.238C-152.583,-14.431 -152.239,-14.581 -151.88,-14.683C-151.433,-14.819 -150.969,-14.886 -150.502,-14.883C-149.116,-14.932 -147.783,-14.331 -146.902,-13.26C-145.954,-12.046 -145.473,-10.531 -145.546,-8.992C-145.473,-7.439 -145.99,-5.914 -146.991,-4.724C-147.916,-3.659 -149.27,-3.063 -150.68,-3.1C-151.132,-3.097 -151.583,-3.164 -152.014,-3.3C-152.369,-3.405 -152.706,-3.562 -153.014,-3.767C-153.25,-3.932 -153.473,-4.114 -153.681,-4.312C-153.838,-4.456 -153.979,-4.617 -154.103,-4.79L-154.214,-4.99L-154.258,-4.99C-154.226,-4.709 -154.211,-4.427 -154.214,-4.145L-154.214,-3.367L-156.26,-3.367ZM-154.17,-8.947C-154.194,-7.946 -153.902,-6.961 -153.336,-6.135C-152.814,-5.36 -151.925,-4.909 -150.991,-4.946C-150.097,-4.935 -149.245,-5.332 -148.679,-6.024C-148.018,-6.858 -147.685,-7.907 -147.745,-8.97C-147.693,-10.016 -148.003,-11.049 -148.623,-11.893C-149.168,-12.607 -150.025,-13.017 -150.923,-12.993C-151.804,-13.01 -152.649,-12.64 -153.235,-11.982C-153.919,-11.125 -154.253,-10.04 -154.17,-8.947ZM-142.677,-16.817L-142.677,-19.062L-140.743,-19.062L-140.743,-16.817L-142.677,-16.817ZM-142.721,-4.79L-142.721,-12.282C-142.718,-12.302 -142.717,-12.323 -142.717,-12.343C-142.717,-12.58 -142.912,-12.775 -143.149,-12.775C-143.169,-12.775 -143.19,-12.774 -143.21,-12.771L-144.121,-12.771L-144.121,-14.616L-142.009,-14.616C-141.613,-14.651 -141.219,-14.532 -140.909,-14.283C-140.652,-13.982 -140.527,-13.589 -140.564,-13.194L-140.564,-5.7C-140.567,-5.68 -140.568,-5.659 -140.568,-5.639C-140.568,-5.402 -140.373,-5.207 -140.136,-5.207C-140.116,-5.207 -140.095,-5.208 -140.075,-5.211L-139.164,-5.211L-139.164,-3.366L-141.3,-3.366C-141.693,-3.33 -142.084,-3.449 -142.389,-3.699C-142.639,-4.005 -142.759,-4.397 -142.722,-4.79L-142.721,-4.79ZM-136.585,-16.817L-136.585,-19.062L-134.651,-19.062L-134.651,-16.817L-136.585,-16.817ZM-136.63,-4.79L-136.63,-12.282C-136.627,-12.302 -136.626,-12.323 -136.626,-12.343C-136.626,-12.58 -136.821,-12.775 -137.058,-12.775C-137.078,-12.775 -137.099,-12.774 -137.119,-12.771L-138.03,-12.771L-138.03,-14.616L-135.918,-14.616C-135.522,-14.651 -135.128,-14.532 -134.818,-14.283C-134.561,-13.982 -134.436,-13.589 -134.473,-13.194L-134.473,-5.7C-134.476,-5.68 -134.477,-5.659 -134.477,-5.639C-134.477,-5.402 -134.282,-5.207 -134.045,-5.207C-134.025,-5.207 -134.004,-5.208 -133.984,-5.211L-133.073,-5.211L-133.073,-3.366L-135.207,-3.366C-135.601,-3.329 -135.994,-3.449 -136.3,-3.7C-136.549,-4.006 -136.668,-4.398 -136.63,-4.79ZM-129.85,1.301C-130.331,1.303 -130.807,1.208 -131.25,1.023C-131.601,0.895 -131.925,0.703 -132.206,0.456L-132.5,0.19L-131.611,-1.366C-131.553,-1.271 -131.478,-1.188 -131.389,-1.121C-131.207,-0.972 -131.005,-0.848 -130.789,-0.754C-130.532,-0.63 -130.251,-0.566 -129.966,-0.565C-129.107,-0.565 -128.447,-1.106 -127.988,-2.188L-127.477,-3.411L-131.323,-12.325C-131.432,-12.606 -131.711,-12.786 -132.012,-12.77L-132.301,-12.77L-132.301,-14.615L-131.034,-14.615C-130.677,-14.641 -130.321,-14.56 -130.011,-14.382C-129.731,-14.144 -129.523,-13.832 -129.411,-13.482L-126.877,-7.146L-126.477,-5.79L-126.433,-5.79C-126.331,-6.248 -126.205,-6.701 -126.055,-7.146L-123.699,-13.482C-123.611,-13.837 -123.407,-14.154 -123.121,-14.382C-122.802,-14.557 -122.439,-14.638 -122.076,-14.615L-120.787,-14.615L-120.787,-12.77L-121.076,-12.77C-121.383,-12.79 -121.671,-12.61 -121.787,-12.325L-126.2,-1.344C-126.5,-0.559 -127.018,0.124 -127.694,0.623C-128.322,1.072 -129.078,1.309 -129.85,1.3L-129.85,1.301ZM-112.2,-3.367L-112.2,-12.281C-112.197,-12.301 -112.196,-12.322 -112.196,-12.342C-112.196,-12.579 -112.391,-12.774 -112.628,-12.774C-112.648,-12.774 -112.669,-12.773 -112.689,-12.77L-113.6,-12.77L-113.6,-14.615L-111.533,-14.615C-110.584,-14.615 -110.11,-14.2 -110.11,-13.37L-110.11,-12.948L-110.132,-12.303L-110.088,-12.303C-109.774,-13.039 -109.253,-13.669 -108.588,-14.115C-107.908,-14.614 -107.086,-14.882 -106.243,-14.882C-104.622,-15.059 -103.123,-13.932 -102.843,-12.326L-102.799,-12.326C-102.462,-13.068 -101.918,-13.697 -101.232,-14.138C-100.523,-14.627 -99.681,-14.887 -98.82,-14.883C-96.345,-14.883 -95.108,-13.445 -95.108,-10.57L-95.108,-5.7C-95.111,-5.68 -95.112,-5.659 -95.112,-5.639C-95.112,-5.402 -94.917,-5.207 -94.68,-5.207C-94.66,-5.207 -94.639,-5.208 -94.619,-5.211L-93.708,-5.211L-93.708,-3.366L-95.842,-3.366C-96.233,-3.331 -96.623,-3.451 -96.927,-3.7C-97.177,-4.005 -97.297,-4.397 -97.26,-4.79L-97.26,-10.1C-97.221,-10.82 -97.362,-11.538 -97.671,-12.19C-98.01,-12.713 -98.619,-12.998 -99.238,-12.924C-99.985,-12.922 -100.699,-12.617 -101.217,-12.079C-101.791,-11.523 -102.192,-10.813 -102.373,-10.034C-102.512,-9.535 -102.579,-9.018 -102.573,-8.5L-102.573,-3.365L-104.729,-3.365L-104.729,-10.1C-104.694,-10.814 -104.827,-11.526 -105.118,-12.179C-105.441,-12.709 -106.047,-13.002 -106.663,-12.924C-107.426,-12.927 -108.157,-12.618 -108.686,-12.068C-109.272,-11.483 -109.687,-10.749 -109.886,-9.945C-109.996,-9.471 -110.049,-8.986 -110.042,-8.5L-110.042,-3.365L-112.2,-3.367ZM-92.393,-8.991C-92.463,-10.571 -91.884,-12.114 -90.793,-13.259C-89.73,-14.339 -88.262,-14.928 -86.747,-14.882C-85.392,-14.955 -84.075,-14.401 -83.179,-13.382C-82.307,-12.325 -81.851,-10.984 -81.9,-9.614C-81.904,-9.309 -81.926,-9.005 -81.967,-8.703L-90.167,-8.703C-90.165,-7.662 -89.73,-6.667 -88.967,-5.958C-88.229,-5.299 -87.266,-4.945 -86.277,-4.969C-86.043,-4.969 -85.808,-4.988 -85.577,-5.025C-85.357,-5.06 -85.141,-5.115 -84.932,-5.192C-84.732,-5.266 -84.55,-5.336 -84.387,-5.403C-84.214,-5.475 -84.047,-5.561 -83.887,-5.659C-83.716,-5.763 -83.587,-5.845 -83.498,-5.904L-83.165,-6.126L-82.965,-6.282L-82.054,-4.704C-82.335,-4.476 -82.632,-4.268 -82.943,-4.082C-83.419,-3.815 -83.922,-3.599 -84.443,-3.437C-85.076,-3.219 -85.741,-3.107 -86.41,-3.104C-88.013,-3.047 -89.569,-3.655 -90.71,-4.782C-91.827,-5.893 -92.436,-7.417 -92.392,-8.992L-92.393,-8.991ZM-90.081,-10.258L-84.057,-10.258C-84.036,-11.061 -84.327,-11.843 -84.868,-12.437C-85.372,-12.953 -86.07,-13.235 -86.791,-13.215C-87.586,-13.233 -88.36,-12.951 -88.958,-12.426C-89.579,-11.861 -89.977,-11.092 -90.08,-10.259L-90.081,-10.258ZM-76.43,-3.367L-79.9,-12.326C-79.996,-12.617 -80.284,-12.803 -80.589,-12.771L-80.811,-12.771L-80.811,-14.616L-79.7,-14.616C-79.315,-14.644 -78.93,-14.563 -78.588,-14.383C-78.299,-14.153 -78.089,-13.838 -77.988,-13.483L-75.565,-7.014L-75.165,-5.547L-75.121,-5.547C-75.021,-6.044 -74.887,-6.534 -74.721,-7.014L-72.321,-13.483C-72.219,-13.841 -72.005,-14.156 -71.71,-14.383C-71.372,-14.56 -70.991,-14.641 -70.61,-14.616L-69.565,-14.616L-69.565,-12.771L-69.787,-12.771C-70.098,-12.808 -70.395,-12.622 -70.498,-12.326L-73.944,-3.367L-76.43,-3.367ZM-68.63,-6.435C-68.63,-9.058 -66.363,-10.37 -61.83,-10.37L-61.341,-10.37L-61.341,-10.526C-61.272,-11.254 -61.482,-11.982 -61.93,-12.56C-62.454,-13.014 -63.14,-13.234 -63.83,-13.171C-64.248,-13.17 -64.665,-13.107 -65.064,-12.982C-65.471,-12.856 -65.675,-12.63 -65.675,-12.304L-65.675,-11.659L-67.72,-11.659L-67.72,-12.793C-67.724,-13.198 -67.563,-13.587 -67.275,-13.871C-66.964,-14.184 -66.577,-14.41 -66.152,-14.527C-65.748,-14.65 -65.336,-14.743 -64.918,-14.805C-64.572,-14.855 -64.223,-14.881 -63.873,-14.883C-62.55,-15.025 -61.226,-14.605 -60.227,-13.727C-59.482,-12.816 -59.109,-11.656 -59.182,-10.481L-59.182,-5.7C-59.185,-5.68 -59.186,-5.659 -59.186,-5.639C-59.186,-5.402 -58.991,-5.207 -58.754,-5.207C-58.734,-5.207 -58.713,-5.208 -58.693,-5.211L-57.782,-5.211L-57.782,-3.366L-59.827,-3.366C-60.746,-3.366 -61.205,-3.796 -61.205,-4.655L-61.183,-5.322L-61.227,-5.322C-61.212,-5.322 -61.246,-5.244 -61.327,-5.089C-61.44,-4.89 -61.574,-4.703 -61.727,-4.533C-61.933,-4.298 -62.16,-4.082 -62.405,-3.888C-62.721,-3.647 -63.074,-3.459 -63.45,-3.332C-63.899,-3.173 -64.373,-3.094 -64.85,-3.099C-65.817,-3.075 -66.762,-3.395 -67.516,-4C-68.252,-4.588 -68.665,-5.494 -68.628,-6.435L-68.63,-6.435ZM-66.474,-6.635C-66.476,-6.15 -66.274,-5.686 -65.918,-5.357C-65.494,-4.974 -64.933,-4.777 -64.362,-4.812C-63.497,-4.8 -62.68,-5.217 -62.183,-5.924C-61.632,-6.628 -61.335,-7.498 -61.338,-8.392L-61.338,-8.814L-61.916,-8.814C-64.953,-8.814 -66.471,-8.088 -66.471,-6.635L-66.474,-6.635ZM-55.8,-4.79L-55.8,-16.728C-55.797,-16.748 -55.796,-16.769 -55.796,-16.789C-55.796,-17.026 -55.991,-17.221 -56.228,-17.221C-56.248,-17.221 -56.269,-17.22 -56.289,-17.217L-57.178,-17.217L-57.178,-19.062L-55.066,-19.062C-54.673,-19.098 -54.282,-18.979 -53.977,-18.729C-53.727,-18.424 -53.608,-18.033 -53.644,-17.64L-53.644,-5.7C-53.647,-5.68 -53.648,-5.659 -53.648,-5.639C-53.648,-5.402 -53.453,-5.207 -53.216,-5.207C-53.196,-5.207 -53.175,-5.208 -53.155,-5.211L-52.244,-5.211L-52.244,-3.366L-54.356,-3.366C-54.752,-3.331 -55.146,-3.45 -55.456,-3.699C-55.714,-4.001 -55.838,-4.395 -55.8,-4.79ZM-50.932,-6.435C-50.932,-9.058 -48.665,-10.37 -44.132,-10.37L-43.643,-10.37L-43.643,-10.526C-43.574,-11.254 -43.784,-11.982 -44.232,-12.56C-44.756,-13.014 -45.442,-13.234 -46.132,-13.171C-46.55,-13.17 -46.967,-13.107 -47.366,-12.982C-47.773,-12.856 -47.977,-12.63 -47.977,-12.304L-47.977,-11.659L-50.022,-11.659L-50.022,-12.793C-50.026,-13.198 -49.865,-13.587 -49.577,-13.871C-49.266,-14.184 -48.879,-14.41 -48.454,-14.527C-48.05,-14.648 -47.637,-14.739 -47.22,-14.8C-46.874,-14.85 -46.525,-14.876 -46.175,-14.878C-44.852,-15.02 -43.528,-14.6 -42.529,-13.722C-41.784,-12.811 -41.411,-11.651 -41.484,-10.476L-41.484,-5.7C-41.487,-5.68 -41.488,-5.66 -41.488,-5.64C-41.488,-5.403 -41.293,-5.208 -41.056,-5.208C-41.037,-5.208 -41.019,-5.21 -41,-5.212L-40.089,-5.212L-40.089,-3.367L-42.134,-3.367C-43.053,-3.367 -43.512,-3.797 -43.512,-4.656L-43.49,-5.323L-43.534,-5.323C-43.519,-5.323 -43.553,-5.245 -43.634,-5.09C-43.747,-4.891 -43.881,-4.704 -44.034,-4.534C-44.24,-4.299 -44.467,-4.083 -44.712,-3.889C-45.028,-3.648 -45.381,-3.46 -45.757,-3.333C-46.206,-3.174 -46.68,-3.095 -47.157,-3.1C-48.123,-3.077 -49.067,-3.395 -49.821,-4C-50.556,-4.589 -50.969,-5.494 -50.932,-6.435ZM-48.776,-6.635C-48.778,-6.15 -48.576,-5.686 -48.22,-5.357C-47.796,-4.974 -47.235,-4.777 -46.664,-4.812C-45.799,-4.8 -44.982,-5.217 -44.485,-5.924C-43.934,-6.628 -43.637,-7.498 -43.64,-8.392L-43.64,-8.814L-44.218,-8.814C-47.257,-8.814 -48.776,-8.088 -48.776,-6.635ZM-37.705,-3.367L-37.705,-12.281C-37.702,-12.301 -37.701,-12.322 -37.701,-12.342C-37.701,-12.579 -37.896,-12.774 -38.133,-12.774C-38.153,-12.774 -38.174,-12.773 -38.194,-12.77L-39.105,-12.77L-39.105,-14.615L-37.038,-14.615C-36.089,-14.615 -35.615,-14.178 -35.615,-13.303L-35.615,-12.592L-35.659,-11.814L-35.615,-11.814C-35.362,-12.63 -34.889,-13.361 -34.248,-13.926C-33.646,-14.464 -32.865,-14.758 -32.058,-14.749L-31.48,-14.705L-31.48,-12.571C-31.684,-12.617 -31.893,-12.639 -32.102,-12.638C-32.806,-12.641 -33.488,-12.393 -34.025,-11.938C-34.625,-11.427 -35.062,-10.75 -35.281,-9.993C-35.47,-9.336 -35.56,-8.654 -35.548,-7.97L-35.548,-3.37L-37.705,-3.367Z" style="fill:rgb(250,79,80);fill-rule:nonzero;"/>
            </g>
        </g>
    </g>
</svg>
